HIERARCHY
ROOT Hips
{
	OFFSET 51.054001 -9.103254 85.129700
	CHANNELS 6 Xposition Yposition Zposition Xrotation Yrotation Zrotation
	JOINT spine
	{
		OFFSET 0.000000 -0.367607 6.392601
		CHANNELS 3 Xrotation Yrotation Zrotation
		JOINT spine1
		{
			OFFSET 0.000000 -0.000001 9.176109
			CHANNELS 3 Xrotation Yrotation Zrotation
			JOINT spine2
			{
				OFFSET 0.000000 -0.000002 8.792381
				CHANNELS 3 Xrotation Yrotation Zrotation
				JOINT Neck
				{
					OFFSET 0.000000 -1.076243 22.573692
					CHANNELS 3 Xrotation Yrotation Zrotation
					JOINT Head
					{
						OFFSET 0.000000 -0.000001 6.820114
						CHANNELS 3 Xrotation Yrotation Zrotation
						End Site
						{
							OFFSET 0.000000 5.444268 16.508499
						}
					}
				}
				JOINT RightShoulder
				{
					OFFSET -3.702209 0.515507 9.495087
					CHANNELS 3 Xrotation Yrotation Zrotation
					JOINT RightArm
					{
						OFFSET 0.000000 -0.000002 12.453697
						CHANNELS 3 Xrotation Yrotation Zrotation
						JOINT RightArmRoll
						{
							OFFSET 0.000000 -0.000002 6.286865
							CHANNELS 3 Xrotation Yrotation Zrotation
							JOINT RightForeArm
							{
								OFFSET 0.000000 -0.000003 18.311401
								CHANNELS 3 Xrotation Yrotation Zrotation
								JOINT RightForeArmRoll
								{
									OFFSET 0.000000 -0.000001 7.054825
									CHANNELS 3 Xrotation Yrotation Zrotation
									JOINT RightHand
									{
										OFFSET 0.000000 -0.000002 14.157501
										CHANNELS 3 Xrotation Yrotation Zrotation
										End Site
										{
											OFFSET 0.000000 0.000000 0.100006
										}
									}
								}
							}
						}
					}
				}
				JOINT LeftShoulder
				{
					OFFSET 3.702209 0.515507 9.495087
					CHANNELS 3 Xrotation Yrotation Zrotation
					JOINT LeftArm
					{
						OFFSET 0.000000 -0.000002 12.453697
						CHANNELS 3 Xrotation Yrotation Zrotation
						JOINT LeftArmRoll
						{
							OFFSET 0.000000 -0.000002 6.286865
							CHANNELS 3 Xrotation Yrotation Zrotation
							JOINT LeftForeArm
							{
								OFFSET 0.000000 -0.000003 18.311401
								CHANNELS 3 Xrotation Yrotation Zrotation
								JOINT LeftForeArmRoll
								{
									OFFSET 0.000000 -0.000001 7.054825
									CHANNELS 3 Xrotation Yrotation Zrotation
									JOINT LeftHand
									{
										OFFSET 0.000000 -0.000002 14.157501
										CHANNELS 3 Xrotation Yrotation Zrotation
										End Site
										{
											OFFSET 0.000000 0.000000 0.100006
										}
									}
								}
							}
						}
					}
				}
			}
		}
	}
	JOINT RightUpLeg
	{
		OFFSET -5.666161 0.871611 -1.039032
		CHANNELS 3 Xrotation Yrotation Zrotation
		JOINT RightUpLegRoll
		{
			OFFSET 0.000000 -0.000003 16.600502
			CHANNELS 3 Xrotation Yrotation Zrotation
			JOINT RightLeg
			{
				OFFSET 0.000000 0.000003 -20.557198
				CHANNELS 3 Xrotation Yrotation Zrotation
				JOINT RightLegRoll
				{
					OFFSET 0.000000 -0.000003 20.624397
					CHANNELS 3 Xrotation Yrotation Zrotation
					JOINT RightFoot
					{
						OFFSET 0.000000 -0.000003 17.166405
						CHANNELS 3 Xrotation Yrotation Zrotation
						JOINT RightToeBase
						{
							OFFSET 0.000000 -0.000003 14.350204
							CHANNELS 3 Xrotation Yrotation Zrotation
							End Site
							{
								OFFSET 0.006081 0.801060 6.949707
							}
						}
					}
				}
			}
		}
	}
	JOINT LeftUpLeg
	{
		OFFSET 5.666161 0.871611 -1.039032
		CHANNELS 3 Xrotation Yrotation Zrotation
		JOINT LeftUpLegRoll
		{
			OFFSET 0.000000 -0.000003 16.600601
			CHANNELS 3 Xrotation Yrotation Zrotation
			JOINT LeftLeg
			{
				OFFSET 0.000000 -0.000004 20.557098
				CHANNELS 3 Xrotation Yrotation Zrotation
				JOINT LeftLegRoll
				{
					OFFSET 0.000000 -0.000003 20.815094
					CHANNELS 3 Xrotation Yrotation Zrotation
					JOINT LeftFoot
					{
						OFFSET 0.000000 -0.000003 16.975693
						CHANNELS 3 Xrotation Yrotation Zrotation
						JOINT LeftToeBase
						{
							OFFSET 0.000000 -0.000003 14.350204
							CHANNELS 3 Xrotation Yrotation Zrotation
							End Site
							{
								OFFSET -0.027260 0.801060 6.949707
							}
						}
					}
				}
			}
		}
	}
}
MOTION
Frames: 7
Frame Time: 0.041667
54.884499 -17.375313 85.903603 -4.187946 1.920641 -1.110390 -0.820463 -0.426217 -0.051882 2.348177 -0.847174 -0.109171 3.993327 -0.848346 -0.099210 5.509293 3.882260 1.028548 7.918698 -3.130701 0.902115 1.081019 -54.913509 1.831628 -34.047376 -116.592641 -26.783784 0.000000 0.000016 -0.000008 7.040807 -12.935854 0.294372 -0.000002 0.000005 -3.000001 -5.000228 -7.998712 0.000181 -7.062498 53.797462 7.899167 -43.279080 117.329399 43.006320 0.000000 -0.000002 0.000004 6.808713 12.437241 -0.238538 -0.000007 -0.000001 3.000021 -5.000208 7.998712 -0.000162 2.804717 -175.014937 1.464151 -179.999991 0.000004 -1.205004 174.927920 -3.034095 -0.510174 0.000005 0.000002 0.054520 68.866420 6.948508 2.003546 25.456885 -7.352853 0.000002 3.512170 172.308297 -1.316489 -0.000020 -0.000005 -1.208940 -5.635936 0.396645 0.558487 -0.000001 -0.000003 -0.004463 69.138173 -6.672069 -2.692120 25.462914 7.355617 -0.008604 
54.881802 -17.369816 85.906090 -4.187635 1.919496 -1.111224 -0.820257 -0.426215 -0.052038 2.348557 -0.847877 -0.109074 3.993709 -0.849052 -0.099113 5.512074 3.889139 1.034495 7.916539 -3.131718 0.906777 1.096499 -54.912467 1.850334 -34.040406 -116.587368 -26.787927 -0.000000 0.000014 -0.000008 7.039598 -12.944924 0.295718 -0.000002 0.000005 -3.000000 -5.000228 -7.998712 0.000181 -7.059901 53.799221 7.896139 -43.274668 117.319045 43.001133 0.000001 -0.000003 0.000005 6.809428 12.440998 -0.239053 -0.000006 -0.000001 3.000021 -5.000208 7.998712 -0.000163 2.804989 -175.012942 1.470191 -179.999991 0.000005 -1.205005 174.929327 -3.043069 -0.509883 0.000006 0.000003 0.054520 68.866960 6.948539 2.003918 25.456883 -7.352853 0.000001 3.514675 172.308310 -1.310718 -0.000020 -0.000004 -1.209300 -5.624940 0.387936 0.558093 -0.000001 -0.000003 -0.004467 69.131056 -6.671535 -2.693850 25.462914 7.355617 -0.008604 
54.881401 -17.371113 85.901604 -4.187298 1.918379 -1.112057 -0.820062 -0.426213 -0.052186 2.348898 -0.848613 -0.108930 3.994050 -0.849789 -0.098969 5.514645 3.896111 1.040428 7.914735 -3.133019 0.911430 1.111778 -54.911729 1.868769 -34.034016 -116.582231 -26.791197 0.000000 0.000015 -0.000007 7.036397 -12.953354 0.296774 -0.000002 0.000005 -3.000000 -5.000228 -7.998711 0.000181 -7.056985 53.801192 7.892754 -43.269084 117.309483 42.993947 0.000001 -0.000004 0.000005 6.809384 12.444378 -0.239467 -0.000006 -0.000001 3.000020 -5.000209 7.998711 -0.000162 2.805310 -175.009964 1.477386 -179.999991 0.000005 -1.205004 174.930953 -3.054030 -0.510766 0.000006 0.000003 0.054520 68.867595 6.948542 2.004479 25.456887 -7.352853 0.000001 3.517670 172.308338 -1.304952 -0.000020 -0.000004 -1.209720 -5.612853 0.379148 0.557632 -0.000001 -0.000003 -0.004473 69.123461 -6.671145 -2.695335 25.462916 7.355617 -0.008605 
54.877399 -17.376019 85.902596 -4.186947 1.917273 -1.112870 -0.819866 -0.426213 -0.052328 2.349218 -0.849372 -0.108752 3.994371 -0.850549 -0.098791 5.517077 3.903151 1.046333 7.913172 -3.134516 0.916074 1.126915 -54.911091 1.887012 -34.028180 -116.577273 -26.793997 -0.000001 0.000015 -0.000007 7.031812 -12.961424 0.297630 -0.000001 0.000005 -3.000001 -5.000228 -7.998711 0.000181 -7.053849 53.803179 7.889107 -43.266171 117.298459 42.989310 0.000002 -0.000003 0.000004 6.808829 12.447472 -0.239796 -0.000007 -0.000000 3.000021 -5.000207 7.998712 -0.000161 2.805669 -175.005962 1.485392 -179.999991 0.000005 -1.205004 174.932783 -3.066993 -0.510819 0.000005 0.000003 0.054520 68.868224 6.948541 2.005140 25.456887 -7.352851 0.000001 3.521022 172.309376 -1.299130 -0.000020 -0.000005 -1.210170 -5.599977 0.370307 0.557127 -0.000001 -0.000003 -0.004480 69.115477 -6.670835 -2.696558 25.462916 7.355615 -0.008604 
54.874802 -17.374413 85.901001 -4.186575 1.916167 -1.113693 -0.819675 -0.426213 -0.052466 2.349519 -0.850143 -0.108555 3.994672 -0.851323 -0.098595 5.519408 3.910243 1.052219 7.911763 -3.136122 0.920715 1.141968 -54.910438 1.905143 -34.022350 -116.572300 -26.796236 -0.000001 0.000015 -0.000007 7.026435 -12.969119 0.298361 -0.000002 0.000005 -3.000000 -5.000230 -7.998713 0.000181 -7.050598 53.805280 7.885319 -43.261926 117.288159 42.982896 0.000001 -0.000003 0.000004 6.807965 12.450378 -0.240085 -0.000007 -0.000001 3.000020 -5.000211 7.998712 -0.000162 2.806050 -175.001973 1.493840 -179.999991 0.000005 -1.205004 174.934655 -3.078949 -0.510779 0.000005 0.000003 0.054521 68.868975 6.948547 2.005794 25.456890 -7.352852 0.000002 3.524576 172.309403 -1.293370 -0.000020 -0.000005 -1.210640 -5.586673 0.361434 0.556599 -0.000001 -0.000003 -0.004488 69.107294 -6.670582 -2.697707 25.462918 7.355617 -0.008604 
54.880299 -17.377819 85.903000 -4.186211 1.915081 -1.114505 -0.819483 -0.426213 -0.052604 2.349819 -0.850918 -0.108353 3.994962 -0.852100 -0.098395 5.521732 3.917336 1.058115 7.910384 -3.137757 0.925354 1.157004 -54.909909 1.923251 -34.017836 -116.566563 -26.799757 -0.000001 0.000014 -0.000008 7.020868 -12.976913 0.299068 -0.000002 0.000005 -3.000001 -5.000230 -7.998712 0.000181 -7.047344 53.807476 7.881528 -43.257661 117.277859 42.976411 0.000002 -0.000004 0.000004 6.807037 12.453281 -0.240361 -0.000007 -0.000001 3.000021 -5.000209 7.998711 -0.000162 2.806433 -174.998968 1.502351 -179.999991 0.000005 -1.205005 174.936581 -3.091913 -0.510824 0.000006 0.000003 0.054520 68.869719 6.948555 2.006350 25.456885 -7.352852 0.000002 3.528178 172.310428 -1.287551 -0.000020 -0.000004 -1.211130 -5.573245 0.352553 0.556067 -0.000002 -0.000003 -0.004496 69.099118 -6.670324 -2.698750 25.462914 7.355617 -0.008605 
54.877899 -17.377211 85.901901 -4.185848 1.913975 -1.115318 -0.819292 -0.426213 -0.052742 2.350120 -0.851686 -0.108161 3.995273 -0.852869 -0.098203 5.524094 3.924407 1.064010 7.908932 -3.139343 0.929998 1.172081 -54.909369 1.941413 -34.011992 -116.561590 -26.802137 -0.000000 0.000013 -0.000008 7.015689 -12.984705 0.299832 -0.000004 0.000005 -3.000001 -5.000229 -7.998711 0.000181 -7.044121 53.809559 7.877778 -43.253238 117.267504 42.969922 0.000000 -0.000004 0.000005 6.806254 12.456181 -0.240657 -0.000007 -0.000001 3.000021 -5.000207 7.998711 -0.000164 2.806813 -174.994979 1.510689 -179.999991 0.000004 -1.205004 174.938452 -3.104876 -0.510872 0.000005 0.000003 0.054520 68.870457 6.948564 2.007003 25.456887 -7.352855 0.000003 3.531692 172.310455 -1.281792 -0.000020 -0.000005 -1.211600 -5.560041 0.343687 0.555554 -0.000001 -0.000003 -0.004504 69.091031 -6.670039 -2.699885 25.462916 7.355616 -0.008604 
